<svg width="32" height="32" viewBox="0 0 32 32" fill="none" xmlns="http://www.w3.org/2000/svg">
<path d="M21.8447 1.92266C22.058 2.3518 21.8448 2.84841 21.3913 3.00225L16.7005 5.13446C16.1499 5.38277 15.7774 5.33689 15.2457 5.10207L12.2147 3.66621C11.7937 3.43139 11.7424 2.85651 12.0123 2.52183C12.2957 2.18446 12.8058 2.13048 13.127 2.43277L15.4616 4.30857C15.7153 4.51639 15.9798 4.52719 16.1903 4.4813C16.2767 4.46241 16.3469 4.42463 16.4629 4.35985L20.7463 1.60957C21.143 1.38556 21.645 1.51241 21.8475 1.92266H21.8447Z" fill="#0545B1"/>
<path d="M5.85585 23.129C5.37543 20.7808 5.12982 18.3517 5.12982 15.8633C5.12982 13.9308 5.25397 12.0307 5.57245 10.1846C5.65072 9.72304 5.80997 9.26691 5.80997 9.26691C6.14194 8.20891 6.92465 7.47748 7.92058 7.02675C7.92058 7.02675 8.4253 6.77574 9.55617 6.47615C12.6303 5.66645 15.9258 5.68804 15.9258 5.68804H16.0743C18.2442 5.69344 20.3495 5.97144 22.3629 6.48155C22.3629 6.48155 23.5316 6.80003 24.0741 7.04024C24.0741 7.04024 25.7636 7.70419 26.209 9.25881C26.2252 9.31549 26.3655 9.79592 26.4195 10.1414C26.7029 12.0091 26.8702 13.9173 26.8702 15.8633C26.8702 18.3598 26.6192 20.797 26.1388 23.1532V23.1694C25.8716 24.4515 24.8676 25.4636 23.591 25.7443C23.5505 25.7524 23.51 25.7605 23.4722 25.7686C21.0566 26.249 18.5573 26.5 16.0014 26.5C13.4454 26.5 10.9677 26.249 8.56024 25.774C8.50357 25.7632 8.44959 25.7524 8.39291 25.7416C7.6183 25.5662 6.94625 25.1235 6.47932 24.5135C6.47932 24.5135 6.04748 24.0628 5.85855 23.129H5.85585Z" fill="#0545B1"/>
<path d="M26.4732 10.5054C26.6448 11.704 26.7675 12.9191 26.8278 14.1499C26.6764 14.2553 26.5281 14.3597 26.381 14.4632C25.9204 14.7873 25.4709 15.1035 24.9702 15.421C23.7664 16.1848 23.008 16.5438 23.008 16.5438C22.4709 16.8515 21.5478 16.9891 20.9081 16.6707C19.9392 16.1875 19.8879 15.0405 19.8879 15.0405C19.8879 15.0405 19.7908 14.1039 19.7368 12.7031H19.7341C19.7017 11.8557 19.6828 11.0163 19.6936 10.1742C19.7044 9.0271 20.5357 8.57097 20.5357 8.57097C21.0863 8.2336 21.8231 8.17152 22.4736 8.45492C23.4695 8.88676 24.7542 9.55071 24.7542 9.55071C25.3564 9.86718 25.8799 10.1461 26.4732 10.5054Z" fill="#00BBED"/>
<path d="M21.0242 19.434C18.5924 21.6958 13.3212 21.6985 10.9542 19.434C10.7653 19.2505 10.4603 19.2613 10.2795 19.4502C10.0959 19.6391 10.104 19.9414 10.293 20.1249C13.0243 22.7295 18.8731 22.7322 21.6692 20.1303C21.8663 19.9522 21.8771 19.6499 21.6989 19.4556C21.5181 19.2613 21.2185 19.2505 21.0242 19.4313V19.434Z" fill="white"/>
<path d="M19.0783 15.6667C19.0783 15.6667 19.0783 15.6532 19.0783 15.6451L19.0648 15.5021L18.7409 11.9205L18.7328 11.8206C18.7247 11.7424 18.7085 11.6641 18.6896 11.5912C18.5142 10.8868 17.9366 10.3443 17.216 10.2174C17.1161 10.2012 17.0136 10.1904 16.9083 10.1904H15.0676C14.9758 10.1904 14.8868 10.1985 14.8004 10.212C14.0609 10.3227 13.4644 10.8733 13.2862 11.5885C13.27 11.6479 13.2592 11.71 13.2512 11.772L13.2323 11.9637L12.9057 15.5236L12.8976 15.6073C12.8976 15.6262 12.8976 15.6478 12.8949 15.6694C12.8949 15.6937 12.8949 15.7153 12.8949 15.7396C12.8949 16.5978 13.4779 17.3185 14.2714 17.5263C14.4198 17.5668 14.5791 17.5884 14.741 17.5884H17.2403C17.3428 17.5884 17.4427 17.5803 17.5426 17.5641C18.4197 17.4183 19.0864 16.6572 19.0864 15.7396C19.0864 15.7153 19.0864 15.6937 19.0864 15.6694L19.0783 15.6667Z" fill="#1AC62F"/>
<path d="M5.12982 15.8617C5.12989 13.9297 5.25406 12.0302 5.57245 10.1846C5.65072 9.72304 5.80997 9.26691 5.80997 9.26691C5.84534 9.15417 5.88583 9.04515 5.93116 8.93977C7.00712 8.29873 8.32688 8.03659 9.67762 8.45232C12.1796 9.22154 12.8759 11.3106 12.1607 13.6992L12.1634 13.6965C11.4563 16.0608 9.33755 17.2645 6.99482 16.8597C6.3001 16.7394 5.66066 16.3731 5.12982 15.8617Z" fill="#F2338A"/>
<path d="M24.6949 12.5625C24.6949 13.4234 23.9958 14.1225 23.1348 14.1225C22.2739 14.1225 21.5748 13.4234 21.5748 12.5625C21.5748 11.7015 22.2739 11.0024 23.1348 11.0024C23.9958 11.0024 24.6949 11.7015 24.6949 12.5625Z" fill="#1A1919"/>
<path d="M8.6224 14.1225C9.48397 14.1225 10.1824 13.424 10.1824 12.5625C10.1824 11.7009 9.48397 11.0024 8.6224 11.0024C7.76082 11.0024 7.06238 11.7009 7.06238 12.5625C7.06238 13.424 7.76082 14.1225 8.6224 14.1225Z" fill="#1A1919"/>
</svg>
